<svg id="visual" viewBox="0 0 900 450" width="900" height="450" xmlns="http://www.w3.org/2000/svg" xmlns:xlink="http://www.w3.org/1999/xlink" version="1.1"><path d="M0 349L16.7 354.2C33.3 359.3 66.7 369.7 100 372.2C133.3 374.7 166.7 369.3 200 364.3C233.3 359.3 266.7 354.7 300 354.2C333.3 353.7 366.7 357.3 400 357.2C433.3 357 466.7 353 500 357.2C533.3 361.3 566.7 373.7 600 376.5C633.3 379.3 666.7 372.7 700 368.2C733.3 363.7 766.7 361.3 800 360.5C833.3 359.7 866.7 360.3 883.3 360.7L900 361L900 451L883.3 451C866.7 451 833.3 451 800 451C766.7 451 733.3 451 700 451C666.7 451 633.3 451 600 451C566.7 451 533.3 451 500 451C466.7 451 433.3 451 400 451C366.7 451 333.3 451 300 451C266.7 451 233.3 451 200 451C166.7 451 133.3 451 100 451C66.7 451 33.3 451 16.7 451L0 451Z" fill="#ffa45d"></path><path d="M0 407L16.7 408.7C33.3 410.3 66.7 413.7 100 414C133.3 414.3 166.7 411.7 200 412.5C233.3 413.3 266.7 417.7 300 418.8C333.3 420 366.7 418 400 412.7C433.3 407.3 466.7 398.7 500 398.3C533.3 398 566.7 406 600 405.3C633.3 404.7 666.7 395.3 700 391.2C733.3 387 766.7 388 800 393.2C833.3 398.3 866.7 407.7 883.3 412.3L900 417L900 451L883.3 451C866.7 451 833.3 451 800 451C766.7 451 733.3 451 700 451C666.7 451 633.3 451 600 451C566.7 451 533.3 451 500 451C466.7 451 433.3 451 400 451C366.7 451 333.3 451 300 451C266.7 451 233.3 451 200 451C166.7 451 133.3 451 100 451C66.7 451 33.3 451 16.7 451L0 451Z" fill="#e16a3d"></path></svg>