<svg id="visual" viewBox="0 0 900 450" width="900" height="450" xmlns="http://www.w3.org/2000/svg" xmlns:xlink="http://www.w3.org/1999/xlink" version="1.1"><path d="M0 369L16.7 366.3C33.3 363.7 66.7 358.3 100 360.8C133.3 363.3 166.7 373.7 200 378.7C233.3 383.7 266.7 383.3 300 382.7C333.3 382 366.7 381 400 379.5C433.3 378 466.7 376 500 370.3C533.3 364.7 566.7 355.3 600 355.7C633.3 356 666.7 366 700 367.2C733.3 368.3 766.7 360.7 800 359C833.3 357.3 866.7 361.7 883.3 363.8L900 366L900 451L883.3 451C866.7 451 833.3 451 800 451C766.7 451 733.3 451 700 451C666.7 451 633.3 451 600 451C566.7 451 533.3 451 500 451C466.7 451 433.3 451 400 451C366.7 451 333.3 451 300 451C266.7 451 233.3 451 200 451C166.7 451 133.3 451 100 451C66.7 451 33.3 451 16.7 451L0 451Z" fill="#ffa45d"></path><path d="M0 397L16.7 399.5C33.3 402 66.7 407 100 408.2C133.3 409.3 166.7 406.7 200 407.3C233.3 408 266.7 412 300 411.8C333.3 411.7 366.7 407.3 400 403.8C433.3 400.3 466.7 397.7 500 397.8C533.3 398 566.7 401 600 405C633.3 409 666.7 414 700 416.8C733.3 419.7 766.7 420.3 800 416.2C833.3 412 866.7 403 883.3 398.5L900 394L900 451L883.3 451C866.7 451 833.3 451 800 451C766.7 451 733.3 451 700 451C666.7 451 633.3 451 600 451C566.7 451 533.3 451 500 451C466.7 451 433.3 451 400 451C366.7 451 333.3 451 300 451C266.7 451 233.3 451 200 451C166.7 451 133.3 451 100 451C66.7 451 33.3 451 16.7 451L0 451Z" fill="#e16a3d"></path></svg>