<svg id="visual" viewBox="0 0 960 540" width="960" height="540" xmlns="http://www.w3.org/2000/svg" xmlns:xlink="http://www.w3.org/1999/xlink" version="1.1"><rect x="0" y="0" width="960" height="540" fill="#001220"></rect><path d="M0 386L17.8 377.7C35.7 369.3 71.3 352.7 106.8 350.2C142.3 347.7 177.7 359.3 213.2 367.2C248.7 375 284.3 379 320 386C355.7 393 391.3 403 426.8 400.2C462.3 397.3 497.7 381.7 533.2 368C568.7 354.3 604.3 342.7 640 348C675.7 353.3 711.3 375.7 746.8 386.7C782.3 397.7 817.7 397.3 853.2 392.8C888.7 388.3 924.3 379.7 942.2 375.3L960 371L960 541L942.2 541C924.3 541 888.7 541 853.2 541C817.7 541 782.3 541 746.8 541C711.3 541 675.7 541 640 541C604.3 541 568.7 541 533.2 541C497.7 541 462.3 541 426.8 541C391.3 541 355.7 541 320 541C284.3 541 248.7 541 213.2 541C177.7 541 142.3 541 106.8 541C71.3 541 35.7 541 17.8 541L0 541Z" fill="#fa7268"></path><path d="M0 421L17.8 427.2C35.7 433.3 71.3 445.7 106.8 448.3C142.3 451 177.7 444 213.2 437C248.7 430 284.3 423 320 425C355.7 427 391.3 438 426.8 440C462.3 442 497.7 435 533.2 427.3C568.7 419.7 604.3 411.3 640 416.5C675.7 421.7 711.3 440.3 746.8 443.8C782.3 447.3 817.7 435.7 853.2 427.3C888.7 419 924.3 414 942.2 411.5L960 409L960 541L942.2 541C924.3 541 888.7 541 853.2 541C817.7 541 782.3 541 746.8 541C711.3 541 675.7 541 640 541C604.3 541 568.7 541 533.2 541C497.7 541 462.3 541 426.8 541C391.3 541 355.7 541 320 541C284.3 541 248.7 541 213.2 541C177.7 541 142.3 541 106.8 541C71.3 541 35.7 541 17.8 541L0 541Z" fill="#e34c67"></path><path d="M0 457L17.8 461.2C35.7 465.3 71.3 473.7 106.8 481.5C142.3 489.3 177.7 496.7 213.2 495C248.7 493.3 284.3 482.7 320 482.3C355.7 482 391.3 492 426.8 494C462.3 496 497.7 490 533.2 486.3C568.7 482.7 604.3 481.3 640 481.8C675.7 482.3 711.3 484.7 746.8 481C782.3 477.3 817.7 467.7 853.2 462.3C888.7 457 924.3 456 942.2 455.5L960 455L960 541L942.2 541C924.3 541 888.7 541 853.2 541C817.7 541 782.3 541 746.8 541C711.3 541 675.7 541 640 541C604.3 541 568.7 541 533.2 541C497.7 541 462.3 541 426.8 541C391.3 541 355.7 541 320 541C284.3 541 248.7 541 213.2 541C177.7 541 142.3 541 106.8 541C71.3 541 35.7 541 17.8 541L0 541Z" fill="#c62368"></path></svg>