<svg id="visual" viewBox="0 0 900 450" width="900" height="450" xmlns="http://www.w3.org/2000/svg" xmlns:xlink="http://www.w3.org/1999/xlink" version="1.1"><path d="M0 350L16.7 351.3C33.3 352.7 66.7 355.3 100 354.8C133.3 354.3 166.7 350.7 200 354C233.3 357.3 266.7 367.7 300 371.7C333.3 375.7 366.7 373.3 400 374.3C433.3 375.3 466.7 379.7 500 376C533.3 372.3 566.7 360.7 600 360.7C633.3 360.7 666.7 372.3 700 374.2C733.3 376 766.7 368 800 364.5C833.3 361 866.7 362 883.3 362.5L900 363L900 451L883.3 451C866.7 451 833.3 451 800 451C766.7 451 733.3 451 700 451C666.7 451 633.3 451 600 451C566.7 451 533.3 451 500 451C466.7 451 433.3 451 400 451C366.7 451 333.3 451 300 451C266.7 451 233.3 451 200 451C166.7 451 133.3 451 100 451C66.7 451 33.3 451 16.7 451L0 451Z" fill="#016a6d"></path><path d="M0 395L16.7 396.3C33.3 397.7 66.7 400.3 100 403.2C133.3 406 166.7 409 200 411C233.3 413 266.7 414 300 410.3C333.3 406.7 366.7 398.3 400 397.5C433.3 396.7 466.7 403.3 500 406.5C533.3 409.7 566.7 409.3 600 408.3C633.3 407.3 666.7 405.7 700 404.3C733.3 403 766.7 402 800 401.8C833.3 401.7 866.7 402.3 883.3 402.7L900 403L900 451L883.3 451C866.7 451 833.3 451 800 451C766.7 451 733.3 451 700 451C666.7 451 633.3 451 600 451C566.7 451 533.3 451 500 451C466.7 451 433.3 451 400 451C366.7 451 333.3 451 300 451C266.7 451 233.3 451 200 451C166.7 451 133.3 451 100 451C66.7 451 33.3 451 16.7 451L0 451Z" fill="#043e52"></path></svg>