<svg id="visual" viewBox="0 0 900 450" width="900" height="450" xmlns="http://www.w3.org/2000/svg" xmlns:xlink="http://www.w3.org/1999/xlink" version="1.1"><path d="M0 362L16.7 359.3C33.3 356.7 66.7 351.3 100 350.7C133.3 350 166.7 354 200 354.3C233.3 354.7 266.7 351.3 300 352.8C333.3 354.3 366.7 360.7 400 366.7C433.3 372.7 466.7 378.3 500 376.3C533.3 374.3 566.7 364.7 600 361.5C633.3 358.3 666.7 361.7 700 364.3C733.3 367 766.7 369 800 370.3C833.3 371.7 866.7 372.3 883.3 372.7L900 373L900 451L883.3 451C866.7 451 833.3 451 800 451C766.7 451 733.3 451 700 451C666.7 451 633.3 451 600 451C566.7 451 533.3 451 500 451C466.7 451 433.3 451 400 451C366.7 451 333.3 451 300 451C266.7 451 233.3 451 200 451C166.7 451 133.3 451 100 451C66.7 451 33.3 451 16.7 451L0 451Z" fill="#016a6d"></path><path d="M0 402L16.7 399.7C33.3 397.3 66.7 392.7 100 395.8C133.3 399 166.7 410 200 412C233.3 414 266.7 407 300 403.7C333.3 400.3 366.7 400.7 400 399.7C433.3 398.7 466.7 396.3 500 399.5C533.3 402.7 566.7 411.3 600 413.5C633.3 415.7 666.7 411.3 700 406.5C733.3 401.7 766.7 396.3 800 394.5C833.3 392.7 866.7 394.3 883.3 395.2L900 396L900 451L883.3 451C866.7 451 833.3 451 800 451C766.7 451 733.3 451 700 451C666.7 451 633.3 451 600 451C566.7 451 533.3 451 500 451C466.7 451 433.3 451 400 451C366.7 451 333.3 451 300 451C266.7 451 233.3 451 200 451C166.7 451 133.3 451 100 451C66.7 451 33.3 451 16.7 451L0 451Z" fill="#043e52"></path></svg>